<svg width="22" height="22" viewBox="0 0 22 22" fill="none" xmlns="http://www.w3.org/2000/svg">
<g opacity="0.5">
<path d="M8.25 1.83398C8.75626 1.83398 9.16667 2.24439 9.16667 2.75065V3.66732H12.8333V2.75065C12.8333 2.24439 13.2437 1.83398 13.75 1.83398C14.2563 1.83398 14.6667 2.24439 14.6667 2.75065V3.66732H17.4167C18.4292 3.66732 19.25 4.48813 19.25 5.50065V17.4173C19.25 18.4298 18.4292 19.2507 17.4167 19.2507H4.58333C3.57081 19.2507 2.75 18.4298 2.75 17.4173V5.50065C2.75 4.48813 3.57081 3.66732 4.58333 3.66732H7.33333V2.75065C7.33333 2.24439 7.74374 1.83398 8.25 1.83398ZM7.33333 5.50065H4.58333V8.25065H17.4167V5.50065H14.6667V6.41732C14.6667 6.92358 14.2563 7.33398 13.75 7.33398C13.2437 7.33398 12.8333 6.92358 12.8333 6.41732V5.50065H9.16667V6.41732C9.16667 6.92358 8.75626 7.33398 8.25 7.33398C7.74374 7.33398 7.33333 6.92358 7.33333 6.41732V5.50065ZM17.4167 10.084H4.58333V17.4173H17.4167V10.084Z" fill="white"/>
</g>
</svg>
