<svg width="22" height="22" viewBox="0 0 22 22" fill="none" xmlns="http://www.w3.org/2000/svg">
<g opacity="0.5">
<path d="M10.084 3.66732C8.0589 3.66732 6.41732 5.30893 6.41732 7.33398C6.41732 7.3637 6.41775 7.39474 6.41852 7.4277C6.42849 7.85398 6.14322 8.23084 5.73024 8.33697C4.54344 8.64193 3.66732 9.72017 3.66732 11.0007C3.66732 12.5194 4.89856 13.7507 6.41732 13.7507H7.33398C7.84025 13.7507 8.25065 14.1611 8.25065 14.6673C8.25065 15.1736 7.84025 15.584 7.33398 15.584H6.41732C3.88605 15.584 1.83398 13.532 1.83398 11.0007C1.83398 9.10999 2.97817 7.4884 4.6108 6.7874C4.88516 4.00644 7.23082 1.83398 10.084 1.83398C12.1222 1.83398 13.8999 2.94254 14.8497 4.58695C17.8029 4.68319 20.1673 7.10747 20.1673 10.084C20.1673 13.1215 17.7049 15.584 14.6673 15.584C14.1611 15.584 13.7507 15.1736 13.7507 14.6673C13.7507 14.1611 14.1611 13.7507 14.6673 13.7507C16.6924 13.7507 18.334 12.109 18.334 10.084C18.334 8.05893 16.6924 6.41732 14.6673 6.41732C14.5658 6.41732 14.4656 6.42142 14.3665 6.42943C13.9752 6.4611 13.6071 6.24003 13.4512 5.87969C12.8875 4.57641 11.5909 3.66732 10.084 3.66732ZM10.3525 8.51914C10.7105 8.16116 11.2909 8.16116 11.6488 8.51914L13.4822 10.3525C13.8401 10.7105 13.8401 11.2909 13.4822 11.6488C13.1242 12.0068 12.5438 12.0068 12.1858 11.6488L11.9173 11.3803V18.334C11.9173 18.8402 11.5069 19.2507 11.0007 19.2507C10.4944 19.2507 10.084 18.8402 10.084 18.334V11.3803L9.8155 11.6488C9.45752 12.0068 8.87712 12.0068 8.51914 11.6488C8.16116 11.2909 8.16116 10.7105 8.51914 10.3525L10.3525 8.51914Z" fill="white"/>
</g>
</svg>
