<svg width="22" height="22" viewBox="0 0 22 22" fill="none" xmlns="http://www.w3.org/2000/svg">
<g opacity="0.5">
<path d="M11 3.66732C8.97496 3.66732 7.33333 5.30894 7.33333 7.33398C7.33333 9.35903 8.97496 11.0007 11 11.0007C13.025 11.0007 14.6667 9.35903 14.6667 7.33398C14.6667 5.30894 13.025 3.66732 11 3.66732ZM5.5 7.33398C5.5 4.29642 7.96243 1.83398 11 1.83398C14.0376 1.83398 16.5 4.29642 16.5 7.33398C16.5 10.3715 14.0376 12.834 11 12.834C7.96243 12.834 5.5 10.3715 5.5 7.33398ZM7.33333 16.5007C5.81455 16.5007 4.58333 17.7319 4.58333 19.2506C4.58333 19.7569 4.17293 20.1673 3.66667 20.1673C3.16041 20.1673 2.75 19.7569 2.75 19.2506C2.75 16.7193 4.80203 14.6673 7.33333 14.6673H14.6667C17.198 14.6673 19.25 16.7193 19.25 19.2507C19.25 19.7569 18.8396 20.1673 18.3333 20.1673C17.8271 20.1673 17.4167 19.7569 17.4167 19.2507C17.4167 17.7319 16.1854 16.5007 14.6667 16.5007H7.33333Z" fill="white"/>
</g>
</svg>
