<svg width="22" height="22" viewBox="0 0 22 22" fill="none" xmlns="http://www.w3.org/2000/svg">
<g opacity="0.5">
<path d="M7.96078 2.79704C8.14894 2.73432 8.35237 2.73432 8.54053 2.79704L13.7507 4.53375L17.7542 3.19922C18.9414 2.80351 20.1673 3.68712 20.1673 4.93847V15.8393C20.1673 16.6284 19.6624 17.329 18.9137 17.5786L14.0405 19.203C13.8524 19.2657 13.6489 19.2657 13.4608 19.203L8.25065 17.4663L4.24707 18.8008C3.05993 19.1965 1.83398 18.3129 1.83398 17.0615V6.1607C1.83398 5.37157 2.33894 4.67099 3.08757 4.42144L7.96078 2.79704ZM9.16732 15.8393L12.834 17.0615V6.1607L9.16732 4.93847V15.8393ZM7.33398 4.93847L3.66732 6.1607V17.0615L7.33398 15.8393V4.93847ZM14.6673 6.1607V17.0615L18.334 15.8393V4.93847L14.6673 6.1607Z" fill="white"/>
</g>
</svg>
